<svg width="32" height="32" viewBox="0 0 32 32" fill="none" xmlns="http://www.w3.org/2000/svg">
<g filter="url(#filter0_i_1_18693)">
<rect width="32" height="32" rx="16" fill="white" fill-opacity="0.01"/>
<path d="M12 14V12H10V16.5C10 16.7761 9.77614 17 9.5 17C9.22386 17 9 16.7761 9 16.5V11H12C12 8.59628 13.9523 7 16 7C18.0575 7 20 8.70556 20 11H23V23.5C23 24.3284 22.3284 25 21.5 25H16.5C16.2239 25 16 24.7761 16 24.5C16 24.2239 16.2239 24 16.5 24H21.5C21.7761 24 22 23.7761 22 23.5V12H20V14H19V12H13V14H12ZM16 8C14.4477 8 13 9.20372 13 11H19C19 9.29444 17.5425 8 16 8Z" fill="#1F2026"/>
<path d="M11.5 18C11.7761 18 12 18.2239 12 18.5V21H14.5C14.7761 21 15 21.2239 15 21.5C15 21.7761 14.7761 22 14.5 22H12V24.5C12 24.7761 11.7761 25 11.5 25C11.2239 25 11 24.7761 11 24.5V22H8.5C8.22386 22 8 21.7761 8 21.5C8 21.2239 8.22386 21 8.5 21H11V18.5C11 18.2239 11.2239 18 11.5 18Z" fill="#1F2026"/>
</g>
<defs>
<filter id="filter0_i_1_18693" x="0" y="0" width="32" height="32" filterUnits="userSpaceOnUse" color-interpolation-filters="sRGB">
<feFlood flood-opacity="0" result="BackgroundImageFix"/>
<feBlend mode="normal" in="SourceGraphic" in2="BackgroundImageFix" result="shape"/>
<feColorMatrix in="SourceAlpha" type="matrix" values="0 0 0 0 0 0 0 0 0 0 0 0 0 0 0 0 0 0 127 0" result="hardAlpha"/>
<feMorphology radius="1" operator="erode" in="SourceAlpha" result="effect1_innerShadow_1_18693"/>
<feOffset/>
<feComposite in2="hardAlpha" operator="arithmetic" k2="-1" k3="1"/>
<feColorMatrix type="matrix" values="0 0 0 0 0.211765 0 0 0 0 0.211765 0 0 0 0 0.25098 0 0 0 0.2 0"/>
<feBlend mode="normal" in2="shape" result="effect1_innerShadow_1_18693"/>
</filter>
</defs>
</svg>
