<svg width="24" height="24" viewBox="0 0 24 24" fill="none" xmlns="http://www.w3.org/2000/svg">
<rect x="3.5" y="9.5" width="17" height="11" rx="1.5" fill="#7000FF"/>
<rect x="3.5" y="9.5" width="17" height="11" rx="1.5" stroke="#7000FF"/>
<rect x="4.59998" y="10.6" width="14.8" height="8.8" rx="1" fill="#F0F0FF"/>
<mask id="path-3-inside-1_1_18531" fill="white">
<path d="M5.01001 4.6C5.01001 3.71634 5.72635 3 6.61001 3H17.4C18.2837 3 19 3.71634 19 4.6H5.01001Z"/>
</mask>
<path d="M5.01001 4.6C5.01001 2.83269 6.4427 1.4 8.21001 1.4H15.8C17.5673 1.4 19 2.83269 19 4.6C19 4.6 18.2837 4.6 17.4 4.6H6.61001C5.72635 4.6 5.01001 4.6 5.01001 4.6ZM19 4.6H5.01001H19ZM5.01001 4.6V3V4.6ZM19 3V4.6V3Z" fill="#7000FF" mask="url(#path-3-inside-1_1_18531)"/>
<mask id="path-5-inside-2_1_18531" fill="white">
<path d="M4.01001 7.6C4.01001 6.71634 4.72635 6 5.61001 6H18.39C19.2737 6 19.99 6.71634 19.99 7.6H4.01001Z"/>
</mask>
<path d="M4.01001 7.6C4.01001 6.71634 4.72635 6 5.61001 6H18.39C19.2737 6 19.99 6.71634 19.99 7.6H4.01001Z" fill="#7000FF"/>
<path d="M4.01001 7.6C4.01001 5.83269 5.4427 4.4 7.21001 4.4H16.79C18.5573 4.4 19.99 5.83269 19.99 7.6C19.99 7.6 19.2737 7.6 18.39 7.6H5.61001C4.72635 7.6 4.01001 7.6 4.01001 7.6ZM19.99 7.6H4.01001H19.99ZM4.01001 7.6V6V7.6ZM19.99 6V7.6V6Z" fill="#7000FF" mask="url(#path-5-inside-2_1_18531)"/>
</svg>
