<svg width="16" height="16" viewBox="0 0 16 16" fill="none" xmlns="http://www.w3.org/2000/svg">
<path fill-rule="evenodd" clip-rule="evenodd" d="M11.5 6.5C11.5 9.2614 9.2614 11.5 6.5 11.5C3.73858 11.5 1.5 9.2614 1.5 6.5C1.5 3.73858 3.73858 1.5 6.5 1.5C9.2614 1.5 11.5 3.73858 11.5 6.5ZM10.3398 11.7451C9.264 12.5341 7.9364 13 6.5 13C2.91015 13 0 10.0899 0 6.5C0 2.91015 2.91015 0 6.5 0C10.0899 0 13 2.91015 13 6.5C13 7.9364 12.5341 9.264 11.7451 10.3398L15.709 14.3036C16.097 14.6917 16.097 15.3209 15.709 15.709C15.3209 16.097 14.6917 16.097 14.3036 15.709L10.3398 11.7451Z" fill="#595B66"/>
</svg>
