<svg width="215" height="32" viewBox="0 0 215 32" fill="none" xmlns="http://www.w3.org/2000/svg">
<g clip-path="url(#clip0_1_18506)">
<path d="M31.9764 15.9882C31.9764 7.15816 24.8182 0 15.9882 0C7.15816 0 0 7.15816 0 15.9882C0 24.8182 7.15816 31.9764 15.9882 31.9764C24.8182 31.9764 31.9764 24.8182 31.9764 15.9882Z" fill="#FFFF00"/>
<path d="M3.75197 14.7932C3.27974 12.1151 3.04363 10.776 3.38446 9.66126C3.68426 8.68064 4.28681 7.82012 5.10575 7.20301C6.03675 6.50144 7.37581 6.26533 10.054 5.79311L18.1441 4.3666C20.8222 3.89437 22.1613 3.65826 23.2761 3.99909C24.2567 4.29889 25.1172 4.90144 25.7343 5.72038C26.4359 6.65138 26.672 7.99044 27.1442 10.6685L28.2538 16.961C28.726 19.6392 28.9621 20.9782 28.6213 22.093C28.3215 23.0736 27.7189 23.9342 26.9 24.5513C25.969 25.2528 24.6299 25.4889 21.9518 25.9612L13.8617 27.3877C11.1836 27.8599 9.84446 28.096 8.72966 27.7552C7.74905 27.4554 6.88852 26.8528 6.27141 26.0339C5.56985 25.1029 5.33373 23.7638 4.86151 21.0857L3.75197 14.7932Z" fill="#7000FF"/>
<path d="M20.5487 11.0839C21.0311 11.1901 21.4979 11.2808 21.9559 11.398C22.4426 11.5219 22.9249 11.6724 23.4072 11.8073C23.4758 11.8272 23.5024 11.8538 23.5024 11.9312C23.5001 13.4379 23.5156 14.9468 23.4957 16.4535C23.4736 18.073 22.9625 19.5376 21.978 20.8252C20.8806 22.2611 19.4447 23.1859 17.6881 23.6063C16.9956 23.7722 16.2898 23.8275 15.5796 23.7855C13.8915 23.6859 12.3959 23.0908 11.1171 21.9868C9.79849 20.8518 8.96661 19.4226 8.63253 17.7101C8.5374 17.2234 8.49979 16.73 8.49979 16.2344C8.49757 14.8074 8.49979 13.3826 8.49536 11.9556C8.49536 11.8604 8.52634 11.8272 8.61262 11.8007C9.533 11.5064 10.4711 11.2741 11.4202 11.1016C11.4291 11.0993 11.4379 11.1016 11.46 11.0993C11.46 11.137 11.46 11.1746 11.46 11.21C11.46 12.9998 11.4534 14.7919 11.4645 16.5818C11.4711 17.4845 11.5928 18.3761 11.9003 19.2323C12.1437 19.9115 12.5043 20.5177 13.0419 21.0089C13.5464 21.4669 14.1371 21.7567 14.7986 21.8983C15.7345 22.0996 16.6681 22.0841 17.5863 21.7943C18.6704 21.4536 19.4226 20.7323 19.9049 19.7168C20.1638 19.1748 20.3187 18.5995 20.416 18.0088C20.5244 17.3517 20.551 16.688 20.551 16.0242C20.551 14.4269 20.551 12.8273 20.551 11.2299C20.5487 11.1878 20.5487 11.148 20.5487 11.0839Z" fill="white"/>
<path d="M17.3163 14.4026C16.4335 14.4026 15.5596 14.4026 14.6813 14.4026C14.6813 12.3451 14.6813 10.2897 14.6813 8.23659C14.9556 8.1503 16.7942 8.14366 17.3163 8.22995C17.3163 10.2875 17.3163 12.3451 17.3163 14.4026Z" fill="white"/>
<path d="M20.5487 11.0839C21.0311 11.1901 21.4979 11.2808 21.9559 11.398C22.4426 11.5219 22.9249 11.6724 23.4072 11.8073C23.4758 11.8272 23.5024 11.8538 23.5024 11.9312C23.5001 13.4379 23.5156 14.9468 23.4957 16.4535C23.4736 18.073 22.9625 19.5376 21.978 20.8252C20.8806 22.2611 19.4447 23.1859 17.6881 23.6063C16.9956 23.7722 16.2898 23.8275 15.5796 23.7855C13.8915 23.6859 12.3959 23.0908 11.1171 21.9868C9.79849 20.8518 8.96661 19.4226 8.63253 17.7101C8.5374 17.2234 8.49979 16.73 8.49979 16.2344C8.49757 14.8074 8.49979 13.3826 8.49536 11.9556C8.49536 11.8604 8.52634 11.8272 8.61262 11.8007C9.533 11.5064 10.4711 11.2741 11.4202 11.1016C11.4291 11.0993 11.4379 11.1016 11.46 11.0993C11.46 11.137 11.46 11.1746 11.46 11.21C11.46 12.9998 11.4534 14.7919 11.4645 16.5818C11.4711 17.4845 11.5928 18.3761 11.9003 19.2323C12.1437 19.9115 12.5043 20.5177 13.0419 21.0089C13.5464 21.4669 14.1371 21.7567 14.7986 21.8983C15.7345 22.0996 16.6681 22.0841 17.5863 21.7943C18.6704 21.4536 19.4226 20.7323 19.9049 19.7168C20.1638 19.1748 20.3187 18.5995 20.416 18.0088C20.5244 17.3517 20.551 16.688 20.551 16.0242C20.551 14.4269 20.551 12.8273 20.551 11.2299C20.5487 11.1878 20.5487 11.148 20.5487 11.0839Z" fill="white"/>
<path d="M17.3163 14.4026C16.4335 14.4026 15.5596 14.4026 14.6813 14.4026C14.6813 12.3451 14.6813 10.2897 14.6813 8.23659C14.9556 8.1503 16.7942 8.14366 17.3163 8.22995C17.3163 10.2875 17.3163 12.3451 17.3163 14.4026Z" fill="white"/>
<path d="M20.5487 11.0839C21.0311 11.1901 21.4979 11.2808 21.9559 11.398C22.4426 11.5219 22.9249 11.6724 23.4072 11.8073C23.4758 11.8272 23.5024 11.8538 23.5024 11.9312C23.5001 13.4379 23.5156 14.9468 23.4957 16.4535C23.4736 18.073 22.9625 19.5376 21.978 20.8252C20.8806 22.2611 19.4447 23.1859 17.6881 23.6063C16.9956 23.7722 16.2898 23.8275 15.5796 23.7855C13.8915 23.6859 12.3959 23.0908 11.1171 21.9868C9.79849 20.8518 8.96661 19.4226 8.63253 17.7101C8.5374 17.2234 8.49979 16.73 8.49979 16.2344C8.49757 14.8074 8.49979 13.3826 8.49536 11.9556C8.49536 11.8604 8.52634 11.8272 8.61262 11.8007C9.533 11.5064 10.4711 11.2741 11.4202 11.1016C11.4291 11.0993 11.4379 11.1016 11.46 11.0993C11.46 11.137 11.46 11.1746 11.46 11.21C11.46 12.9998 11.4534 14.7919 11.4645 16.5818C11.4711 17.4845 11.5928 18.3761 11.9003 19.2323C12.1437 19.9115 12.5043 20.5177 13.0419 21.0089C13.5464 21.4669 14.1371 21.7567 14.7986 21.8983C15.7345 22.0996 16.6681 22.0841 17.5863 21.7943C18.6704 21.4536 19.4226 20.7323 19.9049 19.7168C20.1638 19.1748 20.3187 18.5995 20.416 18.0088C20.5244 17.3517 20.551 16.688 20.551 16.0242C20.551 14.4269 20.551 12.8273 20.551 11.2299C20.5487 11.1878 20.5487 11.148 20.5487 11.0839Z" fill="white"/>
<path d="M17.3163 14.4026C16.4335 14.4026 15.5596 14.4026 14.6813 14.4026C14.6813 12.3451 14.6813 10.2897 14.6813 8.23659C14.9556 8.1503 16.7942 8.14366 17.3163 8.22995C17.3163 10.2875 17.3163 12.3451 17.3163 14.4026Z" fill="white"/>
<path d="M20.5487 11.0839C21.0311 11.1901 21.4979 11.2808 21.9559 11.398C22.4426 11.5219 22.9249 11.6724 23.4072 11.8073C23.4758 11.8272 23.5024 11.8538 23.5024 11.9312C23.5001 13.4379 23.5156 14.9468 23.4957 16.4535C23.4736 18.073 22.9625 19.5376 21.978 20.8252C20.8806 22.2611 19.4447 23.1859 17.6881 23.6063C16.9956 23.7722 16.2898 23.8275 15.5796 23.7855C13.8915 23.6859 12.3959 23.0908 11.1171 21.9868C9.79849 20.8518 8.96661 19.4226 8.63253 17.7101C8.5374 17.2234 8.49979 16.73 8.49979 16.2344C8.49757 14.8074 8.49979 13.3826 8.49536 11.9556C8.49536 11.8604 8.52634 11.8272 8.61262 11.8007C9.533 11.5064 10.4711 11.2741 11.4202 11.1016C11.4291 11.0993 11.4379 11.1016 11.46 11.0993C11.46 11.137 11.46 11.1746 11.46 11.21C11.46 12.9998 11.4534 14.7919 11.4645 16.5818C11.4711 17.4845 11.5928 18.3761 11.9003 19.2323C12.1437 19.9115 12.5043 20.5177 13.0419 21.0089C13.5464 21.4669 14.1371 21.7567 14.7986 21.8983C15.7345 22.0996 16.6681 22.0841 17.5863 21.7943C18.6704 21.4536 19.4226 20.7323 19.9049 19.7168C20.1638 19.1748 20.3187 18.5995 20.416 18.0088C20.5244 17.3517 20.551 16.688 20.551 16.0242C20.551 14.4269 20.551 12.8273 20.551 11.2299C20.5487 11.1878 20.5487 11.148 20.5487 11.0839Z" fill="white"/>
<path d="M17.3163 14.4026C16.4335 14.4026 15.5596 14.4026 14.6813 14.4026C14.6813 12.3451 14.6813 10.2897 14.6813 8.23659C14.9556 8.1503 16.7942 8.14366 17.3163 8.22995C17.3163 10.2875 17.3163 12.3451 17.3163 14.4026Z" fill="white"/>
<path d="M136.192 9.43591C133.804 9.43591 132 10.4096 131.101 11.8771C130.195 10.4096 128.22 9.43591 126.161 9.43591C122.114 9.43591 120.049 11.9937 120.049 15.1687V22.7805H123.829V15.7036C123.829 14.195 124.631 12.8509 126.456 12.8509C128.288 12.8509 129.235 14.1332 129.235 15.6487V22.7805H133.029V15.6487C133.029 14.1264 133.921 12.8509 135.739 12.8509C137.571 12.8509 138.421 14.195 138.421 15.7036V22.7805H142.202V15.1687C142.195 11.9937 140.246 9.43591 136.192 9.43591Z" fill="#7000FF"/>
<path d="M159.051 18.186V9.68964H155.312L155.34 11.7537C154.523 10.5399 153.096 9.43591 150.558 9.43591C146.194 9.43591 143.951 12.8235 143.951 16.2248C143.869 19.6672 146.407 23.0891 150.373 23.0891C152.472 23.0891 154.393 22.1565 155.312 20.5176C155.683 21.601 156.623 22.7874 158.571 22.7874H160.732V19.6124H160.128C159.374 19.6124 159.051 19.3312 159.051 18.186ZM151.347 19.8112C149.199 19.8112 147.594 18.33 147.594 16.2522C147.594 14.2018 149.199 12.748 151.347 12.748C153.563 12.748 155.168 14.2018 155.168 16.2522C155.168 18.33 153.563 19.8112 151.347 19.8112Z" fill="#7000FF"/>
<path d="M163.14 14.1539V22.7806H166.92V16.9929C166.92 14.7505 168.546 13.3104 170.618 13.3104H173.088V9.41541H171.236C168.951 9.41541 167.284 11.3629 166.92 12.4944V12.0966V9.68286H163.14V14.1539Z" fill="#7000FF"/>
<path d="M175.325 22.7805H179.105V16.3687L184.978 22.7805H189.437L183.352 16.0533L188.971 9.68961H184.525L179.105 15.827V5.63684H175.325V22.7805Z" fill="#7000FF"/>
<path d="M193.862 17.2603C193.862 18.7003 194.61 20.1541 197.025 20.1541C199.241 20.1541 199.563 18.8238 199.563 18.8238H203.714C203.714 18.8238 203.33 23.0891 197.025 23.0891C192.634 23.0891 189.883 20.6341 189.883 16.2522C189.883 11.8634 192.634 9.43591 196.984 9.43591C201.272 9.43591 204.037 11.8634 204.037 16.2522C204.037 16.7322 203.954 17.2671 203.954 17.2671H193.862V17.2603ZM193.91 14.9561H199.996C199.996 13.8864 199.378 12.3709 196.977 12.3709C194.61 12.3709 193.91 13.8932 193.91 14.9561Z" fill="#7000FF"/>
<path d="M212.661 19.4959C211.364 19.4959 210.897 18.9198 210.897 17.0957V12.4807H214.993V9.44278H210.897V6.83008H208.853L205.21 10.3137V12.4875H207.117V17.5963C207.117 21.2651 208.908 22.808 212.661 22.808H215V19.5027H212.661V19.4959Z" fill="#7000FF"/>
<path d="M83.6802 16.4853C83.6802 18.5563 82.507 19.5163 80.7644 19.5163C79.0218 19.5163 77.8898 18.5769 77.8898 16.4853V9.6416H74.1301V16.6156C74.1301 21.1621 77.9309 22.9382 80.7918 22.9382C83.6527 22.9382 87.4604 21.1553 87.4604 16.6156V9.6416H83.7007L83.6802 16.4853Z" fill="#7000FF"/>
<path d="M70.9468 12.8166V9.6416H58.728V12.8166H65.966L58.4398 19.5232V22.6982H71.4133V19.5232H63.4344L70.9468 12.8166Z" fill="#7000FF"/>
<path d="M106.286 9.3949C103.905 9.3949 102.108 10.3618 101.216 11.8362C100.31 10.3618 98.3414 9.3949 96.2969 9.3949C92.2766 9.3949 90.1841 11.9528 90.1841 15.1209V22.6984H93.9437V15.649C93.9437 14.1335 94.7395 12.8031 96.5645 12.8031C96.935 12.7825 97.3054 12.8374 97.6553 12.9677C98.0052 13.098 98.3208 13.3037 98.5815 13.5711C98.8422 13.8317 99.048 14.154 99.1784 14.5038C99.3088 14.8535 99.3636 15.2238 99.3431 15.5941V22.6984H103.103V15.5941C103.103 14.0786 103.995 12.8031 105.799 12.8031C107.603 12.8031 108.475 14.1335 108.475 15.649V22.6984H112.234V15.1278C112.234 11.9665 110.293 9.40175 106.252 9.40175L106.286 9.3949Z" fill="#7000FF"/>
<path d="M52.1966 16.4853C52.1966 18.5563 51.0235 19.5163 49.2946 19.5163C47.5657 19.5163 46.4062 18.5769 46.4062 16.4853V9.6416H42.6466V16.6156C42.6466 21.1621 46.4337 22.9382 49.3083 22.9382C52.1829 22.9382 55.9631 21.1553 55.9631 16.6156V9.6416H52.2035L52.1966 16.4853Z" fill="#7000FF"/>
</g>
<defs>
<clipPath id="clip0_1_18506">
<rect width="215" height="32" fill="white"/>
</clipPath>
</defs>
</svg>
