<svg width="16" height="20" viewBox="0 0 16 20" fill="none" xmlns="http://www.w3.org/2000/svg">
<path fill-rule="evenodd" clip-rule="evenodd" d="M5 4.5C5 2.88779 6.2402 1.5 8 1.5C9.7598 1.5 11 2.88779 11 4.5V5.5H5V4.5ZM3.5 7V9.5H5V7H11V9.5H12.5V7H14.5V17.75C14.5 18.1642 14.1642 18.5 13.75 18.5H2.25C1.83579 18.5 1.5 18.1642 1.5 17.75V7H3.5ZM3.5 5.5V4.5C3.5 2.11221 5.35984 0 8 0C10.6402 0 12.5 2.11221 12.5 4.5V5.5H15.25H16V6.25V17.75C16 18.9926 14.9926 20 13.75 20H2.25C1.00736 20 0 18.9926 0 17.75V6.25V5.5H0.75H3.5Z" fill="#1F2026"/>
</svg>
